<svg width="23" height="22" viewBox="0 0 23 22" fill="none" xmlns="http://www.w3.org/2000/svg">
<path d="M5.60521 13.5833C5.163 12.3326 5.13024 10.9735 5.51169 9.70293C5.89313 8.43232 6.66899 7.31604 7.72697 6.51565C8.78495 5.71526 10.0702 5.27228 11.3966 5.25081C12.7231 5.22934 14.022 5.63051 15.1053 6.39624C16.1886 7.16198 17.0002 8.25256 17.4225 9.51017C17.8449 10.7678 17.8562 12.1271 17.4546 13.3916C17.0531 14.656 16.2597 15.7598 15.1892 16.5434C14.1187 17.3269 12.8266 17.7495 11.5 17.75V13.5833H5.60521ZM5.25 19.8333H14.625V21.9167H5.25V19.8333ZM0.0416641 10.4583H3.16666V12.5417H0.0416641V10.4583ZM1.08333 15.6667H9.41666V17.75H1.08333V15.6667ZM10.4583 0.0416565H12.5417V3.16666H10.4583V0.0416565ZM2.66146 4.13437L4.13437 2.66145L6.34375 4.87082L4.87083 6.34374L2.66146 4.13541V4.13437ZM16.6562 18.1292L18.1292 16.6562L20.3385 18.8656L18.8656 20.3385L16.6562 18.1292ZM18.8656 2.66041L20.3385 4.13437L18.1292 6.34374L16.6562 4.87082L18.8656 2.66145V2.66041ZM22.9583 10.4583V12.5417H19.8333V10.4583H22.9583Z" fill="white"/>
</svg>
