<svg width="19" height="21" viewBox="0 0 19 21" fill="none" xmlns="http://www.w3.org/2000/svg">
<path d="M17.1667 20.0833H4.22917C3.33959 20.0833 2.48644 19.7299 1.85741 19.1009C1.22838 18.4719 0.875 17.6187 0.875 16.7292V3.79166C0.875 3.02916 1.1779 2.29789 1.71707 1.75872C2.25624 1.21956 2.9875 0.916656 3.75 0.916656H17.1667C17.4208 0.916656 17.6646 1.01762 17.8443 1.19735C18.024 1.37707 18.125 1.62082 18.125 1.87499V19.125C18.125 19.3792 18.024 19.6229 17.8443 19.8026C17.6646 19.9824 17.4208 20.0833 17.1667 20.0833ZM16.2083 18.1667V15.2917H4.22917C3.84792 15.2917 3.48228 15.4431 3.2127 15.7127C2.94312 15.9823 2.79167 16.3479 2.79167 16.7292C2.79167 17.1104 2.94312 17.476 3.2127 17.7456C3.48228 18.0152 3.84792 18.1667 4.22917 18.1667H16.2083ZM7.58333 2.83332V10.5L10.9375 8.58332L14.2917 10.5V2.83332H7.58333Z" fill="white"/>
</svg>
