<svg width="577" height="98" viewBox="0 0 577 98" fill="none" xmlns="http://www.w3.org/2000/svg">
<path d="M36.7113 29.376C37.0953 30.24 37.2873 31.216 37.2873 32.304C37.2873 33.392 36.9033 34.336 36.1353 35.136C35.3993 35.904 34.4873 36.288 33.3993 36.288C30.0073 36.288 24.6953 36.096 17.4633 35.712C16.8873 35.68 16.3753 35.504 15.9273 35.184C15.4793 34.832 15.2553 34.4 15.2553 33.888C15.2553 32.192 15.3833 29.328 15.6393 25.296C15.9273 21.264 16.0713 17.504 16.0713 14.016C16.0713 10.496 15.7353 6.464 15.0633 1.92C17.4313 2.112 20.6153 2.208 24.6153 2.208C28.6153 2.208 32.4393 1.92 36.0873 1.344C36.4713 2.048 36.6633 2.896 36.6633 3.888C36.6633 4.848 36.2793 5.712 35.5113 6.48C34.7753 7.216 33.8473 7.584 32.7273 7.584C31.6393 7.584 29.8793 7.424 27.4473 7.104C25.0473 6.784 23.2713 6.624 22.1193 6.624C21.8633 9.856 21.7193 12.896 21.6873 15.744C23.7033 15.936 25.8633 16.032 28.1673 16.032C30.5033 16.032 32.5033 15.696 34.1673 15.024C34.5513 15.728 34.7433 16.576 34.7433 17.568C34.7433 18.528 34.3593 19.408 33.5913 20.208C32.8553 20.976 31.9593 21.36 30.9033 21.36C29.8793 21.36 28.3433 21.168 26.2953 20.784C24.2473 20.368 22.6953 20.16 21.6393 20.16C21.6393 25.216 21.7513 28.928 21.9753 31.296C23.5113 31.424 24.7113 31.488 25.5753 31.488C29.7993 31.488 33.5113 30.784 36.7113 29.376ZM74.5705 28.416C73.4505 30.592 72.0425 32.448 70.3465 33.984C68.6505 35.52 66.9545 36.288 65.2585 36.288C63.5625 36.288 62.2505 35.712 61.3225 34.56C60.4265 33.376 59.7865 31.872 59.4025 30.048C59.0185 28.192 58.6665 26.288 58.3465 24.336C58.0585 22.384 57.5465 20.48 56.8105 18.624C56.0745 16.768 55.0665 15.376 53.7865 14.448C54.2025 13.68 54.8265 13.04 55.6585 12.528C56.4905 11.984 57.3865 11.712 58.3465 11.712C59.8505 11.712 61.0665 12.688 61.9945 14.64C62.9225 16.56 63.5145 18.688 63.7705 21.024C64.0585 23.36 64.3625 25.632 64.6825 27.84C65.0345 30.016 65.4345 31.264 65.8825 31.584C66.9705 31.52 67.9145 30.832 68.7145 29.52C69.5465 28.176 70.1545 26.56 70.5385 24.672C71.2425 21.216 71.5945 18.512 71.5945 16.56C71.5945 14.608 71.4985 13.104 71.3065 12.048C72.4265 11.824 73.3865 11.712 74.1865 11.712C76.9385 11.712 78.3145 13.024 78.3145 15.648C78.3145 17.312 77.9625 19.312 77.2585 21.648C76.5865 23.952 75.6905 26.208 74.5705 28.416ZM100.215 25.104C100.215 27.408 100.583 29.232 101.319 30.576C102.055 31.888 103.287 32.544 105.015 32.544C106.743 32.544 108.087 31.968 109.047 30.816C110.039 29.632 110.535 28.208 110.535 26.544C111.623 26.544 112.567 26.816 113.367 27.36C114.167 27.904 114.567 28.656 114.567 29.616C114.567 31.6 113.511 33.264 111.399 34.608C109.287 35.92 107.063 36.576 104.727 36.576C101.079 36.576 98.4385 35.6 96.8065 33.648C95.1745 31.664 94.3585 28.736 94.3585 24.864C94.3585 20.992 95.4465 17.744 97.6225 15.12C99.8305 12.464 102.759 11.136 106.407 11.136C108.903 11.136 110.903 11.712 112.407 12.864C113.943 13.984 114.711 15.744 114.711 18.144C114.711 20.512 113.623 22.304 111.447 23.52C109.303 24.704 106.679 25.296 103.575 25.296C102.487 25.296 101.367 25.232 100.215 25.104ZM100.263 21.312C101.223 21.504 102.231 21.6 103.287 21.6C105.591 21.6 107.527 21.168 109.095 20.304C109.287 19.536 109.383 18.928 109.383 18.48C109.383 17.36 108.983 16.512 108.183 15.936C107.383 15.36 106.279 15.072 104.871 15.072C103.495 15.072 102.247 15.52 101.127 16.416C100.551 18.08 100.263 19.712 100.263 21.312ZM140.886 35.424C139.894 35.808 138.838 36 137.718 36C136.598 36 135.686 35.744 134.982 35.232C134.31 34.688 133.974 33.952 133.974 33.024C133.974 32.064 134.118 30.336 134.406 27.84C134.694 25.344 134.838 22.928 134.838 20.592C134.838 18.224 134.47 15.456 133.734 12.288C134.758 11.904 135.766 11.712 136.758 11.712C137.75 11.712 138.598 12.048 139.302 12.72C140.038 13.392 140.406 14.288 140.406 15.408C140.406 15.984 140.31 16.848 140.118 18C139.926 19.12 139.814 19.968 139.782 20.544C141.03 17.696 142.502 15.472 144.198 13.872C145.926 12.24 147.638 11.424 149.334 11.424C150.518 11.424 151.462 11.84 152.166 12.672C152.87 13.504 153.222 14.56 153.222 15.84C153.222 17.088 152.902 18.112 152.262 18.912C151.622 19.68 150.822 20.064 149.862 20.064C148.934 20.064 148.182 19.968 147.606 19.776C147.702 19.392 147.75 19.04 147.75 18.72C147.75 17.408 147.286 16.752 146.358 16.752C144.95 16.752 143.622 18.176 142.374 21.024C141.158 23.84 140.342 26.48 139.926 28.944C140.086 31.344 140.406 33.504 140.886 35.424ZM170.888 28.032L171.368 21.12C171.368 18.016 170.92 15.072 170.024 12.288C170.92 11.904 172.024 11.712 173.336 11.712C175.896 11.712 177.176 13.136 177.176 15.984C177.176 17.264 177 19.072 176.648 21.408C176.296 23.744 176.12 25.36 176.12 26.256C176.12 27.12 176.136 27.76 176.168 28.176C176.2 28.56 176.28 29.024 176.408 29.568C176.6 30.656 177.224 31.2 178.28 31.2C179.368 31.2 180.52 30.352 181.736 28.656C182.984 26.928 183.976 25.024 184.712 22.944C185.48 20.864 185.864 19.216 185.864 18C185.704 15.472 185.432 13.568 185.048 12.288C186.072 11.904 187.112 11.712 188.168 11.712C189.256 11.712 190.152 12.048 190.856 12.72C191.592 13.392 191.96 14.288 191.96 15.408C191.96 32.88 188.76 43.36 182.36 46.848C180.92 47.616 179.288 48 177.464 48C175.64 48 174.04 47.52 172.664 46.56C171.32 45.6 170.648 44.256 170.648 42.528C170.648 41.376 171.08 40.4 171.944 39.6C172.808 38.832 173.832 38.448 175.016 38.448C175.272 38.448 175.592 38.48 175.976 38.544C175.88 38.96 175.832 39.328 175.832 39.648C175.832 42.464 176.808 43.872 178.76 43.872C179.944 43.872 181.016 43.232 181.976 41.952C182.936 40.672 183.704 39.104 184.28 37.248C185.4 33.472 185.96 30.048 185.96 26.976C185 29.568 183.688 31.664 182.024 33.264C180.392 34.832 178.616 35.616 176.696 35.616C172.824 35.616 170.888 33.088 170.888 28.032ZM226.652 0.575998C227.676 0.191998 228.732 -2.86102e-06 229.82 -2.86102e-06C230.908 -2.86102e-06 231.804 0.367997 232.508 1.104C233.212 1.808 233.564 2.704 233.564 3.792C233.564 4.848 233.404 7.376 233.084 11.376C232.764 15.344 232.604 19.264 232.604 23.136C232.604 26.976 232.988 31.072 233.756 35.424C232.604 35.808 231.404 36 230.156 36C228.044 36 226.988 34.512 226.988 31.536C226.988 30.544 227.196 28.768 227.612 26.208C226.268 29.056 225.068 31.168 224.012 32.544C222.988 33.92 221.98 34.896 220.988 35.472C220.028 36.016 219.004 36.288 217.916 36.288C215.484 36.288 213.612 35.392 212.3 33.6C211.02 31.808 210.38 29.6 210.38 26.976C210.38 24.352 210.844 21.888 211.772 19.584C212.732 17.248 214.156 15.312 216.044 13.776C217.964 12.208 219.996 11.424 222.14 11.424C224.284 11.424 226.14 11.712 227.708 12.288C227.644 8.16 227.292 4.256 226.652 0.575998ZM227.708 16.368C226.14 15.792 224.444 15.504 222.62 15.504C220.796 15.504 219.228 16.032 217.916 17.088C216.828 19.68 216.284 22.576 216.284 25.776C216.284 27.248 216.492 28.656 216.908 30C217.324 31.344 218.012 32.016 218.972 32.016C220.444 32.016 222.108 30.368 223.964 27.072C225.852 23.776 227.1 20.208 227.708 16.368ZM274.73 13.392C273.866 17.072 273.434 20.768 273.434 24.48C273.434 28.16 273.85 31.808 274.682 35.424C273.53 35.808 272.346 36 271.13 36C269.914 36 269.066 35.648 268.586 34.944C268.106 34.208 267.866 33.168 267.866 31.824C267.866 30.448 268.074 28.576 268.49 26.208C266.218 31.072 264.026 34.144 261.914 35.424C260.954 36 259.962 36.288 258.938 36.288C256.506 36.288 254.618 35.392 253.274 33.6C251.93 31.776 251.258 29.52 251.258 26.832C251.258 22.736 252.394 19.152 254.666 16.08C256.938 12.976 259.882 11.424 263.498 11.424C267.146 11.424 270.89 12.08 274.73 13.392ZM268.442 16.272C266.746 15.76 265.306 15.504 264.122 15.504C261.722 15.504 259.93 16.032 258.746 17.088C257.658 19.776 257.114 22.512 257.114 25.296C257.114 26.768 257.338 28.256 257.786 29.76C258.266 31.264 258.986 32.016 259.946 32.016C261.066 32.016 262.506 30.368 264.266 27.072C266.026 23.776 267.418 20.176 268.442 16.272ZM294.07 28.032L294.55 21.12C294.55 18.016 294.102 15.072 293.206 12.288C294.102 11.904 295.206 11.712 296.518 11.712C299.078 11.712 300.358 13.136 300.358 15.984C300.358 17.264 300.182 19.072 299.83 21.408C299.478 23.744 299.302 25.36 299.302 26.256C299.302 27.12 299.318 27.76 299.35 28.176C299.382 28.56 299.462 29.024 299.59 29.568C299.782 30.656 300.406 31.2 301.462 31.2C302.55 31.2 303.702 30.352 304.918 28.656C306.166 26.928 307.158 25.024 307.894 22.944C308.662 20.864 309.046 19.216 309.046 18C308.886 15.472 308.614 13.568 308.23 12.288C309.254 11.904 310.294 11.712 311.35 11.712C312.438 11.712 313.334 12.048 314.038 12.72C314.774 13.392 315.142 14.288 315.142 15.408C315.142 32.88 311.942 43.36 305.542 46.848C304.102 47.616 302.47 48 300.646 48C298.822 48 297.222 47.52 295.846 46.56C294.502 45.6 293.83 44.256 293.83 42.528C293.83 41.376 294.262 40.4 295.126 39.6C295.99 38.832 297.014 38.448 298.198 38.448C298.454 38.448 298.774 38.48 299.158 38.544C299.062 38.96 299.014 39.328 299.014 39.648C299.014 42.464 299.99 43.872 301.942 43.872C303.126 43.872 304.198 43.232 305.158 41.952C306.118 40.672 306.886 39.104 307.462 37.248C308.582 33.472 309.142 30.048 309.142 26.976C308.182 29.568 306.87 31.664 305.206 33.264C303.574 34.832 301.798 35.616 299.878 35.616C296.006 35.616 294.07 33.088 294.07 28.032ZM341.722 15.888C341.082 16.048 340.554 16.128 340.138 16.128C338.858 16.128 337.77 15.776 336.874 15.072C336.01 14.336 335.578 13.36 335.578 12.144C335.578 9.808 336.666 7.904 338.842 6.432C341.018 4.96 343.434 4.224 346.09 4.224C348.778 4.224 350.97 4.88 352.666 6.192C354.394 7.472 355.258 9.344 355.258 11.808C355.258 14.688 353.978 17.024 351.418 18.816C353.114 19.36 354.41 20.24 355.306 21.456C356.234 22.672 356.698 24.096 356.698 25.728C356.698 28.96 355.37 31.584 352.714 33.6C350.058 35.584 346.938 36.576 343.354 36.576C340.89 36.576 338.762 36.08 336.97 35.088C335.178 34.096 334.282 32.608 334.282 30.624C334.282 29.344 334.714 28.32 335.578 27.552C336.442 26.784 337.53 26.4 338.842 26.4C339.546 26.4 340.17 26.48 340.714 26.64C340.49 27.28 340.378 27.888 340.378 28.464C340.378 29.616 340.81 30.512 341.674 31.152C342.538 31.76 343.706 32.064 345.178 32.064C346.682 32.064 347.914 31.6 348.874 30.672C349.834 29.712 350.314 28.464 350.314 26.928C350.314 25.392 349.898 24.208 349.066 23.376C348.234 22.544 347.13 22.128 345.754 22.128C345.018 22.128 344.378 21.936 343.834 21.552C343.322 21.136 343.066 20.64 343.066 20.064C343.066 19.456 343.146 18.912 343.306 18.432C343.882 18.528 344.458 18.576 345.034 18.576C346.506 18.576 347.594 18.064 348.298 17.04C349.002 16.016 349.354 14.8 349.354 13.392C349.354 11.984 349.002 10.864 348.298 10.032C347.594 9.168 346.634 8.736 345.418 8.736C344.202 8.736 343.178 9.056 342.346 9.696C341.738 10.784 341.434 11.904 341.434 13.056C341.434 14.208 341.53 15.152 341.722 15.888ZM393.161 27.744C393.577 26.432 393.865 25.136 394.025 23.856C394.217 22.576 394.313 21.2 394.313 19.728C394.313 18.256 394.233 16.928 394.073 15.744C393.913 14.56 393.625 13.408 393.209 12.288C392.313 9.92 390.521 8.736 387.833 8.736C386.137 8.736 384.697 9.392 383.513 10.704C382.457 13.232 381.929 16.736 381.929 21.216C381.929 25.312 382.521 28.192 383.705 29.856C384.793 31.328 386.361 32.064 388.409 32.064C389.561 32.064 390.537 31.68 391.337 30.912C392.169 30.112 392.777 29.056 393.161 27.744ZM400.649 19.392C400.649 24.192 399.385 28.256 396.857 31.584C394.329 34.912 390.873 36.576 386.489 36.576C383.897 36.576 381.753 35.888 380.057 34.512C378.393 33.104 377.225 31.344 376.553 29.232C375.913 27.088 375.593 24.576 375.593 21.696C375.593 16.864 376.857 12.752 379.385 9.36C381.945 5.936 385.401 4.224 389.753 4.224C392.345 4.224 394.473 4.944 396.137 6.384C397.833 7.824 399.001 9.632 399.641 11.808C400.313 13.984 400.649 16.512 400.649 19.392ZM456.584 16.608L456.104 26.88C456.104 29.984 456.552 32.928 457.448 35.712C456.552 36.096 455.528 36.288 454.376 36.288C451.656 36.288 450.296 34.768 450.296 31.728C450.296 30.352 450.472 28.048 450.824 24.816C451.176 21.552 451.352 19.504 451.352 18.672C451.352 17.072 450.696 16.272 449.384 16.272C447.944 16.272 446.216 17.744 444.2 20.688C442.216 23.632 441.224 25.936 441.224 27.6C441.384 30.128 441.832 32.64 442.568 35.136C441.352 35.52 440.328 35.712 439.496 35.712C436.776 35.712 435.416 34.192 435.416 31.152C435.416 29.872 435.592 27.728 435.944 24.72C436.296 21.712 436.472 19.824 436.472 19.056C436.472 17.456 435.752 16.656 434.312 16.656C433.32 16.656 432.184 17.392 430.904 18.864C429.624 20.336 428.536 21.968 427.64 23.76C426.776 25.52 426.312 26.928 426.248 27.984C426.408 30.736 426.728 33.216 427.208 35.424C426.184 35.808 425.112 36 423.992 36C422.904 36 422.008 35.744 421.304 35.232C420.632 34.688 420.296 33.952 420.296 33.024C420.296 32.064 420.44 30.368 420.728 27.936C421.016 25.472 421.16 23.04 421.16 20.64C421.16 18.208 420.792 15.424 420.056 12.288C421.08 11.904 422.168 11.712 423.32 11.712C424.472 11.712 425.4 12.048 426.104 12.72C426.84 13.392 427.208 14.288 427.208 15.408C427.208 15.984 427.096 17.392 426.872 19.632C428.056 17.52 429.56 15.696 431.384 14.16C433.208 12.592 435.032 11.808 436.856 11.808C440.088 11.808 441.704 13.536 441.704 16.992C441.704 17.856 441.656 18.816 441.56 19.872C442.744 17.632 444.264 15.664 446.12 13.968C448.008 12.272 449.88 11.424 451.736 11.424C454.968 11.424 456.584 13.152 456.584 16.608ZM477.118 12.144C478.142 11.856 479.166 11.712 480.19 11.712C481.246 11.712 482.142 12.032 482.878 12.672C483.614 13.312 483.982 14.144 483.982 15.168C483.982 16.16 483.806 17.904 483.454 20.4C483.134 22.864 482.974 24.784 482.974 26.16C482.974 29.744 483.31 32.832 483.982 35.424C482.99 35.808 481.918 36 480.766 36C479.614 36 478.702 35.744 478.03 35.232C477.358 34.688 477.022 33.92 477.022 32.928C477.022 31.904 477.214 30.24 477.598 27.936C477.982 25.632 478.174 23.728 478.174 22.224C478.174 18.224 477.822 14.864 477.118 12.144ZM477.742 1.296C478.862 0.783998 479.966 0.527999 481.054 0.527999C482.142 0.527999 482.942 0.815999 483.454 1.392C483.998 1.936 484.27 2.752 484.27 3.84C484.27 4.928 483.902 5.888 483.166 6.72C482.462 7.552 481.534 7.968 480.382 7.968C478.014 7.968 476.83 6.736 476.83 4.272C476.83 3.184 477.134 2.192 477.742 1.296ZM526.12 16.608L525.64 27.168C525.64 30.08 526.088 32.928 526.984 35.712C526.088 36.096 525.064 36.288 523.912 36.288C521.192 36.288 519.832 34.768 519.832 31.728C519.832 30.352 520.008 28.048 520.36 24.816C520.712 21.552 520.888 19.504 520.888 18.672C520.888 17.072 520.168 16.272 518.728 16.272C517.672 16.272 516.472 17.04 515.128 18.576C513.816 20.08 512.68 21.776 511.72 23.664C510.792 25.52 510.248 27.056 510.088 28.272C510.216 30.768 510.536 33.152 511.048 35.424C510.024 35.808 508.952 36 507.832 36C506.744 36 505.848 35.744 505.144 35.232C504.472 34.688 504.136 33.952 504.136 33.024C504.136 32.064 504.28 30.368 504.568 27.936C504.856 25.472 505 23.04 505 20.64C505 18.208 504.632 15.424 503.896 12.288C504.92 11.904 506.008 11.712 507.16 11.712C508.312 11.712 509.24 12.048 509.944 12.72C510.68 13.392 511.048 14.224 511.048 15.216C511.048 16.208 510.92 17.792 510.664 19.968C511.88 17.696 513.464 15.712 515.416 14.016C517.368 12.288 519.32 11.424 521.272 11.424C524.504 11.424 526.12 13.152 526.12 16.608ZM550.741 27.264C550.645 27.712 550.597 28.08 550.597 28.368C550.597 29.68 550.981 30.688 551.749 31.392C552.549 32.096 553.605 32.448 554.917 32.448C556.261 32.448 557.365 32.208 558.229 31.728C559.125 31.216 559.573 30.464 559.573 29.472C559.573 28.48 559.093 27.696 558.133 27.12C557.205 26.512 556.069 26.032 554.725 25.68C553.413 25.328 552.085 24.944 550.741 24.528C549.397 24.08 548.245 23.392 547.285 22.464C546.357 21.536 545.893 20.368 545.893 18.96C545.893 16.752 547.061 14.896 549.397 13.392C551.733 11.888 554.181 11.136 556.741 11.136C559.557 11.136 561.701 11.712 563.173 12.864C564.037 13.536 564.469 14.432 564.469 15.552C564.469 16.64 564.037 17.536 563.173 18.24C562.341 18.912 561.317 19.248 560.101 19.248C559.845 19.248 559.525 19.216 559.141 19.152C559.237 18.736 559.285 18.368 559.285 18.048C559.285 17.12 558.933 16.416 558.229 15.936C557.525 15.456 556.565 15.216 555.349 15.216C554.165 15.216 553.077 15.456 552.085 15.936C551.701 16.448 551.509 17.104 551.509 17.904C551.509 18.704 551.973 19.36 552.901 19.872C553.829 20.352 554.949 20.784 556.261 21.168C557.605 21.52 558.949 21.936 560.293 22.416C561.637 22.864 562.773 23.584 563.701 24.576C564.629 25.536 565.093 26.752 565.093 28.224C565.093 30.624 563.893 32.624 561.493 34.224C559.125 35.792 556.677 36.576 554.149 36.576C551.621 36.576 549.525 36.128 547.861 35.232C546.229 34.304 545.413 32.912 545.413 31.056C545.413 29.904 545.829 28.976 546.661 28.272C547.525 27.536 548.565 27.168 549.781 27.168C550.037 27.168 550.357 27.2 550.741 27.264Z" fill="white"/>
<path d="M5.56934 91.712C5.05734 91.904 4.51334 92 3.93734 92C3.36134 92 2.85734 91.816 2.42534 91.448C2.00934 91.08 1.80134 90.576 1.80134 89.936C1.80134 89.296 1.88134 88.072 2.04134 86.264C2.20134 84.44 2.28134 82.984 2.28134 81.896C2.28134 79.096 2.11334 76.88 1.77734 75.248C2.28934 75.056 2.83334 74.96 3.40934 74.96C3.98534 74.96 4.48134 75.144 4.89734 75.512C5.32934 75.88 5.54534 76.384 5.54534 77.024C5.54534 77.664 5.46534 78.896 5.30534 80.72C5.14534 82.528 5.06534 83.976 5.06534 85.064C5.06534 87.864 5.23334 90.08 5.56934 91.712ZM33.897 82.304L33.657 87.44C33.657 88.992 33.881 90.464 34.329 91.856C33.881 92.048 33.369 92.144 32.793 92.144C31.433 92.144 30.753 91.384 30.753 89.864C30.753 89.176 30.841 88.024 31.017 86.408C31.193 84.776 31.281 83.752 31.281 83.336C31.281 82.536 30.953 82.136 30.297 82.136C29.577 82.136 28.713 82.872 27.705 84.344C26.713 85.816 26.217 86.968 26.217 87.8C26.297 89.064 26.521 90.32 26.889 91.568C26.281 91.76 25.769 91.856 25.353 91.856C23.993 91.856 23.313 91.096 23.313 89.576C23.313 88.936 23.401 87.864 23.577 86.36C23.753 84.856 23.841 83.912 23.841 83.528C23.841 82.728 23.481 82.328 22.761 82.328C22.265 82.328 21.697 82.696 21.057 83.432C20.417 84.168 19.873 84.984 19.425 85.88C18.993 86.76 18.761 87.464 18.729 87.992C18.809 89.368 18.969 90.608 19.209 91.712C18.697 91.904 18.161 92 17.601 92C17.057 92 16.609 91.872 16.257 91.616C15.921 91.344 15.753 90.976 15.753 90.512C15.753 90.032 15.825 89.184 15.969 87.968C16.113 86.736 16.185 85.52 16.185 84.32C16.185 83.104 16.001 81.712 15.633 80.144C16.145 79.952 16.689 79.856 17.265 79.856C17.841 79.856 18.305 80.024 18.657 80.36C19.025 80.696 19.209 81.144 19.209 81.704C19.209 81.992 19.153 82.696 19.041 83.816C19.633 82.76 20.385 81.848 21.297 81.08C22.209 80.296 23.121 79.904 24.033 79.904C25.649 79.904 26.457 80.768 26.457 82.496C26.457 82.928 26.433 83.408 26.385 83.936C26.977 82.816 27.737 81.832 28.665 80.984C29.609 80.136 30.545 79.712 31.473 79.712C33.089 79.712 33.897 80.576 33.897 82.304ZM47.164 89.648C47.82 89.888 48.58 90.008 49.444 90.008C50.308 90.008 51.068 89.84 51.724 89.504C52.508 88.16 52.9 86.552 52.9 84.68C52.9 82.792 52.572 81.848 51.916 81.848C51.1 81.848 50.18 82.672 49.156 84.32C48.148 85.968 47.484 87.744 47.164 89.648ZM47.164 84.728C48.86 81.384 50.74 79.712 52.804 79.712C53.892 79.712 54.668 80.16 55.132 81.056C55.612 81.936 55.852 83.056 55.852 84.416C55.852 86.368 55.276 88.144 54.124 89.744C52.972 91.344 51.524 92.144 49.78 92.144C48.788 92.144 47.884 91.984 47.068 91.664C47.1 93.856 47.236 95.864 47.476 97.688C46.964 97.88 46.436 97.976 45.892 97.976C45.348 97.976 44.9 97.792 44.548 97.424C44.196 97.072 44.02 96.528 44.02 95.792C44.02 95.056 44.116 93.8 44.308 92.024C44.5 90.248 44.596 88.856 44.596 87.848C44.596 84.52 44.42 81.952 44.068 80.144C44.58 79.952 45.116 79.856 45.676 79.856C46.252 79.856 46.692 80.024 46.996 80.36C47.316 80.68 47.476 81.192 47.476 81.896C47.476 82.584 47.372 83.528 47.164 84.728ZM68.6498 91.712C68.1538 91.904 67.6258 92 67.0658 92C66.5058 92 66.0498 91.872 65.6978 91.616C65.3618 91.344 65.1938 90.976 65.1938 90.512C65.1938 90.032 65.2658 89.168 65.4098 87.92C65.5538 86.672 65.6258 85.464 65.6258 84.296C65.6258 83.112 65.4418 81.728 65.0738 80.144C65.5858 79.952 66.0898 79.856 66.5858 79.856C67.0818 79.856 67.5058 80.024 67.8578 80.36C68.2258 80.696 68.4098 81.144 68.4098 81.704C68.4098 81.992 68.3618 82.424 68.2658 83C68.1698 83.56 68.1138 83.984 68.0978 84.272C68.7218 82.848 69.4578 81.736 70.3058 80.936C71.1698 80.12 72.0258 79.712 72.8738 79.712C73.4658 79.712 73.9378 79.92 74.2898 80.336C74.6418 80.752 74.8178 81.28 74.8178 81.92C74.8178 82.544 74.6578 83.056 74.3378 83.456C74.0178 83.84 73.6178 84.032 73.1378 84.032C72.6738 84.032 72.2978 83.984 72.0098 83.888C72.0578 83.696 72.0818 83.52 72.0818 83.36C72.0818 82.704 71.8498 82.376 71.3858 82.376C70.6818 82.376 70.0178 83.088 69.3938 84.512C68.7858 85.92 68.3778 87.24 68.1698 88.472C68.2498 89.672 68.4098 90.752 68.6498 91.712ZM87.7545 92.288C85.9945 92.288 84.6985 91.776 83.8665 90.752C83.0345 89.712 82.6185 88.272 82.6185 86.432C82.6185 84.576 83.1705 82.968 84.2745 81.608C85.3785 80.248 86.7945 79.568 88.5225 79.568C92.0745 79.568 93.8505 81.568 93.8505 85.568C93.8505 87.44 93.2745 89.032 92.1225 90.344C90.9705 91.64 89.5145 92.288 87.7545 92.288ZM86.0265 82.208C85.7385 83.136 85.5945 84.064 85.5945 84.992C85.5945 85.92 85.6265 86.64 85.6905 87.152C85.7545 87.664 85.8745 88.176 86.0505 88.688C86.4185 89.728 87.1385 90.248 88.2105 90.248C89.2985 90.248 90.0105 89.96 90.3465 89.384C90.6985 88.808 90.8745 87.92 90.8745 86.72C90.8745 83.312 90.0665 81.608 88.4505 81.608C87.5225 81.608 86.7145 81.808 86.0265 82.208ZM112.418 88.208C111.858 89.296 111.154 90.224 110.306 90.992C109.458 91.76 108.61 92.144 107.762 92.144C106.914 92.144 106.258 91.856 105.794 91.28C105.346 90.688 105.026 89.936 104.834 89.024C104.642 88.096 104.466 87.144 104.306 86.168C104.162 85.192 103.906 84.24 103.538 83.312C103.17 82.384 102.666 81.688 102.026 81.224C102.234 80.84 102.546 80.52 102.962 80.264C103.378 79.992 103.826 79.856 104.306 79.856C105.058 79.856 105.666 80.344 106.13 81.32C106.594 82.28 106.89 83.344 107.018 84.512C107.162 85.68 107.314 86.816 107.474 87.92C107.65 89.008 107.85 89.632 108.074 89.792C108.618 89.76 109.09 89.416 109.49 88.76C109.906 88.088 110.21 87.28 110.402 86.336C110.754 84.608 110.93 83.256 110.93 82.28C110.93 81.304 110.882 80.552 110.786 80.024C111.346 79.912 111.826 79.856 112.226 79.856C113.602 79.856 114.29 80.512 114.29 81.824C114.29 82.656 114.114 83.656 113.762 84.824C113.426 85.976 112.978 87.104 112.418 88.208ZM125.24 86.552C125.24 87.704 125.424 88.616 125.792 89.288C126.16 89.944 126.776 90.272 127.64 90.272C128.504 90.272 129.176 89.984 129.656 89.408C130.152 88.816 130.4 88.104 130.4 87.272C130.944 87.272 131.416 87.408 131.816 87.68C132.216 87.952 132.416 88.328 132.416 88.808C132.416 89.8 131.888 90.632 130.832 91.304C129.776 91.96 128.664 92.288 127.496 92.288C125.672 92.288 124.352 91.8 123.536 90.824C122.72 89.832 122.312 88.368 122.312 86.432C122.312 84.496 122.856 82.872 123.944 81.56C125.048 80.232 126.512 79.568 128.336 79.568C129.584 79.568 130.584 79.856 131.336 80.432C132.104 80.992 132.488 81.872 132.488 83.072C132.488 84.256 131.944 85.152 130.856 85.76C129.784 86.352 128.472 86.648 126.92 86.648C126.376 86.648 125.816 86.616 125.24 86.552ZM125.264 84.656C125.744 84.752 126.248 84.8 126.776 84.8C127.928 84.8 128.896 84.584 129.68 84.152C129.776 83.768 129.824 83.464 129.824 83.24C129.824 82.68 129.624 82.256 129.224 81.968C128.824 81.68 128.272 81.536 127.568 81.536C126.88 81.536 126.256 81.76 125.696 82.208C125.408 83.04 125.264 83.856 125.264 84.656ZM167.637 81.008C168.021 80.88 168.469 80.816 168.981 80.816C169.509 80.816 169.973 81.008 170.373 81.392C170.773 81.76 170.973 82.28 170.973 82.952C170.973 84.824 170.045 86.704 168.189 88.592C169.853 89.504 171.317 89.96 172.581 89.96C172.581 91.384 171.901 92.096 170.541 92.096C169.277 92.096 167.725 91.544 165.885 90.44C163.981 91.672 162.109 92.288 160.269 92.288C158.845 92.288 157.749 91.928 156.981 91.208C156.213 90.472 155.829 89.408 155.829 88.016C155.829 86.224 156.693 84.608 158.421 83.168C157.653 81.84 157.269 80.672 157.269 79.664C157.269 78.288 157.837 77.104 158.973 76.112C160.125 75.12 161.429 74.624 162.885 74.624C163.877 74.624 164.669 74.872 165.261 75.368C165.853 75.848 166.149 76.544 166.149 77.456C166.149 78.192 166.005 78.776 165.717 79.208C165.445 79.624 165.229 79.936 165.069 80.144C164.925 80.352 164.669 80.608 164.301 80.912C163.949 81.216 163.685 81.44 163.509 81.584C163.349 81.712 163.045 81.944 162.597 82.28C162.149 82.6 161.861 82.808 161.733 82.904C162.725 84.392 164.221 85.864 166.221 87.32C167.341 86.008 167.901 84.728 167.901 83.48C167.901 82.632 167.813 81.808 167.637 81.008ZM159.597 84.896C159.069 85.632 158.805 86.408 158.805 87.224C158.805 89 159.677 89.888 161.421 89.888C162.285 89.888 163.149 89.64 164.013 89.144C162.173 87.736 160.701 86.32 159.597 84.896ZM163.461 79.04C163.605 78.768 163.677 78.448 163.677 78.08C163.677 77.696 163.557 77.376 163.317 77.12C163.077 76.864 162.701 76.736 162.189 76.736C161.693 76.736 161.221 76.864 160.773 77.12C160.437 77.584 160.269 78.192 160.269 78.944C160.269 79.696 160.469 80.512 160.869 81.392C162.309 80.416 163.173 79.632 163.461 79.04ZM195.487 90.92C195.983 88.536 196.231 86.064 196.231 83.504C196.231 80.944 196.031 78.352 195.631 75.728C197.807 75.12 199.735 74.816 201.415 74.816C203.911 74.816 205.807 75.472 207.103 76.784C208.415 78.08 209.071 80.056 209.071 82.712C209.071 85.368 208.327 87.608 206.839 89.432C205.367 91.24 203.319 92.144 200.695 92.144C198.903 92.144 197.167 91.736 195.487 90.92ZM199.207 77.24C199.063 79.192 198.991 81.088 198.991 82.928C198.991 84.752 199.079 86.96 199.255 89.552C199.911 89.776 200.647 89.888 201.463 89.888C202.279 89.888 202.983 89.704 203.575 89.336C204.183 88.952 204.647 88.432 204.967 87.776C205.591 86.528 205.903 85 205.903 83.192C205.903 81.448 205.567 80.008 204.895 78.872C204.159 77.592 203.015 76.952 201.463 76.952C200.615 76.952 199.863 77.048 199.207 77.24ZM222.709 92.288C220.949 92.288 219.653 91.776 218.821 90.752C217.989 89.712 217.573 88.272 217.573 86.432C217.573 84.576 218.125 82.968 219.229 81.608C220.333 80.248 221.749 79.568 223.477 79.568C227.029 79.568 228.805 81.568 228.805 85.568C228.805 87.44 228.229 89.032 227.077 90.344C225.925 91.64 224.469 92.288 222.709 92.288ZM220.981 82.208C220.693 83.136 220.549 84.064 220.549 84.992C220.549 85.92 220.581 86.64 220.645 87.152C220.709 87.664 220.829 88.176 221.005 88.688C221.373 89.728 222.093 90.248 223.165 90.248C224.253 90.248 224.965 89.96 225.301 89.384C225.653 88.808 225.829 87.92 225.829 86.72C225.829 83.312 225.021 81.608 223.405 81.608C222.477 81.608 221.669 81.808 220.981 82.208ZM250.93 76.208C251.314 75.376 252.018 74.96 253.042 74.96C254.946 74.96 256.746 77.696 258.442 83.168C259.434 81.68 260.282 80.168 260.986 78.632C261.706 77.08 262.066 75.808 262.066 74.816C263.762 74.816 264.61 75.264 264.61 76.16C264.61 76.784 264.226 77.712 263.458 78.944C262.69 80.176 261.858 81.448 260.962 82.76C260.082 84.056 259.562 85.008 259.402 85.616C259.354 86.24 259.33 87.008 259.33 87.92C259.33 88.832 259.442 90.096 259.666 91.712C259.154 91.904 258.61 92 258.034 92C257.458 92 256.954 91.816 256.522 91.448C256.106 91.08 255.898 90.616 255.898 90.056C255.898 89.48 255.994 88.024 256.186 85.688C254.954 80.888 253.202 77.728 250.93 76.208ZM275.863 92.288C274.103 92.288 272.807 91.776 271.975 90.752C271.143 89.712 270.727 88.272 270.727 86.432C270.727 84.576 271.279 82.968 272.383 81.608C273.487 80.248 274.903 79.568 276.631 79.568C280.183 79.568 281.959 81.568 281.959 85.568C281.959 87.44 281.383 89.032 280.231 90.344C279.079 91.64 277.623 92.288 275.863 92.288ZM274.135 82.208C273.847 83.136 273.703 84.064 273.703 84.992C273.703 85.92 273.735 86.64 273.799 87.152C273.863 87.664 273.983 88.176 274.159 88.688C274.527 89.728 275.247 90.248 276.319 90.248C277.407 90.248 278.119 89.96 278.455 89.384C278.807 88.808 278.983 87.92 278.983 86.72C278.983 83.312 278.175 81.608 276.559 81.608C275.631 81.608 274.823 81.808 274.135 82.208ZM291.407 89.552L291.647 84.56C291.647 83.008 291.423 81.536 290.975 80.144C291.423 79.952 291.975 79.856 292.631 79.856C293.911 79.856 294.551 80.568 294.551 81.992C294.551 82.792 294.463 83.92 294.287 85.376C294.111 86.816 294.023 87.864 294.023 88.52C294.023 89.32 294.383 89.72 295.103 89.72C295.535 89.72 296.039 89.36 296.615 88.64C297.207 87.904 297.711 87.088 298.127 86.192C298.559 85.28 298.815 84.536 298.895 83.96C298.799 82.2 298.663 80.928 298.487 80.144C298.999 79.952 299.519 79.856 300.047 79.856C300.591 79.856 301.039 80.024 301.391 80.36C301.759 80.696 301.943 81.112 301.943 81.608C301.943 82.104 301.871 82.928 301.727 84.08C301.583 85.232 301.511 86.44 301.511 87.704C301.511 88.952 301.655 90.288 301.943 91.712C301.319 91.904 300.759 92 300.263 92C299.271 92 298.775 91.344 298.775 90.032C298.775 89.456 298.839 88.656 298.967 87.632C298.327 88.992 297.543 90.088 296.615 90.92C295.703 91.736 294.775 92.144 293.831 92.144C292.215 92.144 291.407 91.28 291.407 89.552ZM315.209 91.712C314.713 91.904 314.185 92 313.625 92C313.065 92 312.609 91.872 312.257 91.616C311.921 91.344 311.753 90.976 311.753 90.512C311.753 90.032 311.825 89.168 311.969 87.92C312.113 86.672 312.185 85.464 312.185 84.296C312.185 83.112 312.001 81.728 311.633 80.144C312.145 79.952 312.649 79.856 313.145 79.856C313.641 79.856 314.065 80.024 314.417 80.36C314.785 80.696 314.969 81.144 314.969 81.704C314.969 81.992 314.921 82.424 314.825 83C314.729 83.56 314.673 83.984 314.657 84.272C315.281 82.848 316.017 81.736 316.865 80.936C317.729 80.12 318.585 79.712 319.433 79.712C320.025 79.712 320.497 79.92 320.849 80.336C321.201 80.752 321.377 81.28 321.377 81.92C321.377 82.544 321.217 83.056 320.897 83.456C320.577 83.84 320.177 84.032 319.697 84.032C319.233 84.032 318.857 83.984 318.569 83.888C318.617 83.696 318.641 83.52 318.641 83.36C318.641 82.704 318.409 82.376 317.945 82.376C317.241 82.376 316.577 83.088 315.953 84.512C315.345 85.92 314.937 87.24 314.729 88.472C314.809 89.672 314.969 90.752 315.209 91.712ZM348.143 75.152C348.815 74.928 349.423 74.816 349.967 74.816C350.799 74.816 351.447 75.112 351.911 75.704C352.375 76.28 352.735 77.104 352.991 78.176C353.071 78.496 353.231 79.2 353.471 80.288C353.727 81.376 353.935 82.256 354.095 82.928C354.591 85.024 355.039 86.648 355.439 87.8C355.855 88.952 356.511 89.872 357.407 90.56C357.215 91.04 356.895 91.424 356.447 91.712C356.015 92 355.543 92.144 355.031 92.144C353.863 92.144 353.007 91.264 352.463 89.504C352.207 88.688 351.975 87.888 351.767 87.104C351.207 87.296 350.511 87.392 349.679 87.392C348.863 87.392 347.855 87.304 346.655 87.128C346.159 89.064 345.911 90.52 345.911 91.496C345.911 91.704 345.919 91.856 345.935 91.952C345.727 91.984 345.375 92 344.879 92C344.383 92 343.943 91.848 343.559 91.544C343.191 91.224 343.007 90.776 343.007 90.2C343.007 89.4 343.775 87.056 345.311 83.168C346.847 79.28 347.791 76.608 348.143 75.152ZM347.207 85.112C347.847 85.192 348.495 85.232 349.151 85.232C349.823 85.232 350.535 85.16 351.287 85.016C351.143 84.36 350.655 81.848 349.823 77.48C348.831 80.056 347.959 82.6 347.207 85.112ZM366.077 91.16C366.445 87.976 366.629 85.784 366.629 84.584C366.629 81.224 366.493 77.792 366.221 74.288C366.701 74.096 367.213 74 367.757 74C368.301 74 368.765 74.184 369.149 74.552C369.533 74.92 369.725 75.384 369.725 75.944C369.725 76.904 369.629 78.44 369.437 80.552C369.245 82.648 369.125 84.048 369.077 84.752C370.389 82.288 371.693 80.752 372.989 80.144C373.565 79.856 374.181 79.712 374.837 79.712C375.733 79.712 376.421 80.184 376.901 81.128C377.397 82.072 377.645 83.224 377.645 84.584C377.645 86.76 377.053 88.568 375.869 90.008C374.685 91.432 373.149 92.144 371.261 92.144C369.389 92.144 367.661 91.816 366.077 91.16ZM368.957 89.648C369.597 89.888 370.357 90.008 371.237 90.008C372.117 90.008 372.877 89.84 373.517 89.504C374.301 88.16 374.693 86.696 374.693 85.112C374.693 84.36 374.605 83.632 374.429 82.928C374.253 82.208 373.973 81.848 373.589 81.848C372.997 81.848 372.221 82.664 371.261 84.296C370.301 85.928 369.533 87.712 368.957 89.648ZM389.055 87.632C389.007 87.856 388.983 88.04 388.983 88.184C388.983 88.84 389.175 89.344 389.559 89.696C389.959 90.048 390.487 90.224 391.143 90.224C391.815 90.224 392.367 90.104 392.799 89.864C393.247 89.608 393.471 89.232 393.471 88.736C393.471 88.24 393.231 87.848 392.751 87.56C392.287 87.256 391.719 87.016 391.047 86.84C390.391 86.664 389.727 86.472 389.055 86.264C388.383 86.04 387.807 85.696 387.327 85.232C386.863 84.768 386.631 84.184 386.631 83.48C386.631 82.376 387.215 81.448 388.383 80.696C389.551 79.944 390.775 79.568 392.055 79.568C393.463 79.568 394.535 79.856 395.271 80.432C395.703 80.768 395.919 81.216 395.919 81.776C395.919 82.32 395.703 82.768 395.271 83.12C394.855 83.456 394.343 83.624 393.735 83.624C393.607 83.624 393.447 83.608 393.255 83.576C393.303 83.368 393.327 83.184 393.327 83.024C393.327 82.56 393.151 82.208 392.799 81.968C392.447 81.728 391.967 81.608 391.359 81.608C390.767 81.608 390.223 81.728 389.727 81.968C389.535 82.224 389.439 82.552 389.439 82.952C389.439 83.352 389.671 83.68 390.135 83.936C390.599 84.176 391.159 84.392 391.815 84.584C392.487 84.76 393.159 84.968 393.831 85.208C394.503 85.432 395.071 85.792 395.535 86.288C395.999 86.768 396.231 87.376 396.231 88.112C396.231 89.312 395.631 90.312 394.431 91.112C393.247 91.896 392.023 92.288 390.759 92.288C389.495 92.288 388.447 92.064 387.615 91.616C386.799 91.152 386.391 90.456 386.391 89.528C386.391 88.952 386.599 88.488 387.015 88.136C387.447 87.768 387.967 87.584 388.575 87.584C388.703 87.584 388.863 87.6 389.055 87.632ZM409.505 92.288C407.745 92.288 406.449 91.776 405.617 90.752C404.785 89.712 404.369 88.272 404.369 86.432C404.369 84.576 404.921 82.968 406.025 81.608C407.129 80.248 408.545 79.568 410.273 79.568C413.825 79.568 415.601 81.568 415.601 85.568C415.601 87.44 415.025 89.032 413.873 90.344C412.721 91.64 411.265 92.288 409.505 92.288ZM407.777 82.208C407.489 83.136 407.345 84.064 407.345 84.992C407.345 85.92 407.377 86.64 407.441 87.152C407.505 87.664 407.625 88.176 407.801 88.688C408.169 89.728 408.889 90.248 409.961 90.248C411.049 90.248 411.761 89.96 412.097 89.384C412.449 88.808 412.625 87.92 412.625 86.72C412.625 83.312 411.817 81.608 410.201 81.608C409.273 81.608 408.465 81.808 407.777 82.208ZM425.049 74.288C425.561 74.096 426.089 74 426.633 74C427.177 74 427.625 74.184 427.977 74.552C428.345 74.904 428.529 75.392 428.529 76.016C428.529 76.624 428.441 77.856 428.265 79.712C428.105 81.552 428.025 83 428.025 84.056C428.025 86.664 428.209 89.216 428.577 91.712C428.065 91.904 427.521 92 426.945 92C425.713 92 425.097 91.4 425.097 90.2C425.097 89.624 425.185 88.496 425.361 86.816C425.537 85.12 425.625 83.76 425.625 82.736C425.625 79.328 425.433 76.512 425.049 74.288ZM449.494 80.696C449.062 82.536 448.846 84.384 448.846 86.24C448.846 88.08 449.054 89.904 449.47 91.712C448.894 91.904 448.302 92 447.694 92C447.086 92 446.662 91.824 446.422 91.472C446.182 91.104 446.062 90.584 446.062 89.912C446.062 89.224 446.166 88.288 446.374 87.104C445.238 89.536 444.142 91.072 443.086 91.712C442.606 92 442.11 92.144 441.598 92.144C440.382 92.144 439.438 91.696 438.766 90.8C438.094 89.888 437.758 88.76 437.758 87.416C437.758 85.368 438.326 83.576 439.462 82.04C440.598 80.488 442.07 79.712 443.878 79.712C445.702 79.712 447.574 80.04 449.494 80.696ZM446.35 82.136C445.502 81.88 444.782 81.752 444.19 81.752C442.99 81.752 442.094 82.016 441.502 82.544C440.958 83.888 440.686 85.256 440.686 86.648C440.686 87.384 440.798 88.128 441.022 88.88C441.262 89.632 441.622 90.008 442.102 90.008C442.662 90.008 443.382 89.184 444.262 87.536C445.142 85.888 445.838 84.088 446.35 82.136ZM459.836 76.328C460.348 76.072 460.868 75.944 461.396 75.944C461.924 75.944 462.348 76.112 462.668 76.448C463.004 76.784 463.172 77.28 463.172 77.936C463.172 78.592 463.132 79.336 463.052 80.168C464.252 80.168 465.396 80 466.484 79.664C466.676 79.984 466.772 80.36 466.772 80.792C466.772 81.208 466.58 81.552 466.196 81.824C465.828 82.08 465.452 82.208 465.068 82.208C464.684 82.208 464.252 82.16 463.772 82.064C463.292 81.968 462.98 81.912 462.836 81.896C462.82 82.04 462.772 82.328 462.692 82.76C462.628 83.192 462.572 83.568 462.524 83.888C462.396 84.768 462.332 85.712 462.332 86.72C462.332 88.912 463.044 90.008 464.468 90.008C464.996 90.008 465.604 89.824 466.292 89.456C466.5 89.76 466.604 90.152 466.604 90.632C466.604 91.112 466.34 91.488 465.812 91.76C465.3 92.016 464.684 92.144 463.964 92.144C461.148 92.144 459.74 90.544 459.74 87.344C459.74 86.88 459.804 86.04 459.932 84.824C460.076 83.608 460.148 82.624 460.148 81.872C459.38 81.92 458.764 82.056 458.3 82.28C458.108 81.992 458.012 81.664 458.012 81.296C458.012 80.912 458.148 80.6 458.42 80.36C458.692 80.104 459.028 79.976 459.428 79.976C459.828 79.976 460.092 79.984 460.22 80C460.236 79.872 460.244 79.704 460.244 79.496C460.244 78.296 460.108 77.24 459.836 76.328ZM477.825 86.552C477.825 87.704 478.009 88.616 478.377 89.288C478.745 89.944 479.361 90.272 480.225 90.272C481.089 90.272 481.761 89.984 482.241 89.408C482.737 88.816 482.985 88.104 482.985 87.272C483.529 87.272 484.001 87.408 484.401 87.68C484.801 87.952 485.001 88.328 485.001 88.808C485.001 89.8 484.473 90.632 483.417 91.304C482.361 91.96 481.249 92.288 480.081 92.288C478.257 92.288 476.937 91.8 476.121 90.824C475.305 89.832 474.897 88.368 474.897 86.432C474.897 84.496 475.441 82.872 476.529 81.56C477.633 80.232 479.097 79.568 480.921 79.568C482.169 79.568 483.169 79.856 483.921 80.432C484.689 80.992 485.073 81.872 485.073 83.072C485.073 84.256 484.529 85.152 483.441 85.76C482.369 86.352 481.057 86.648 479.505 86.648C478.961 86.648 478.401 86.616 477.825 86.552ZM477.849 84.656C478.329 84.752 478.833 84.8 479.361 84.8C480.513 84.8 481.481 84.584 482.265 84.152C482.361 83.768 482.409 83.464 482.409 83.24C482.409 82.68 482.209 82.256 481.809 81.968C481.409 81.68 480.857 81.536 480.153 81.536C479.465 81.536 478.841 81.76 478.281 82.208C477.993 83.04 477.849 83.856 477.849 84.656ZM509.038 75.728C511.342 75.12 513.35 74.816 515.062 74.816C518.726 74.816 520.558 76.088 520.558 78.632C520.558 80.184 519.83 81.368 518.374 82.184C519.35 82.424 520.158 82.888 520.798 83.576C521.438 84.248 521.758 85.096 521.758 86.12C521.758 88.04 521.046 89.528 519.622 90.584C518.198 91.624 516.438 92.144 514.342 92.144C512.246 92.144 510.43 91.728 508.894 90.896C509.39 89.168 509.638 86.84 509.638 83.912C509.638 80.968 509.438 78.24 509.038 75.728ZM512.662 89.552C513.366 89.776 514.07 89.888 514.774 89.888C515.878 89.888 516.79 89.616 517.51 89.072C518.23 88.512 518.59 87.728 518.59 86.72C518.59 84.8 517.55 83.84 515.47 83.84C514.478 83.84 513.47 84.048 512.446 84.464C512.446 86.08 512.518 87.776 512.662 89.552ZM512.422 82.352C512.646 82.304 512.974 82.248 513.406 82.184C513.854 82.12 514.198 82.064 514.438 82.016C514.678 81.968 514.974 81.896 515.326 81.8C515.694 81.704 515.974 81.592 516.166 81.464C516.374 81.32 516.582 81.144 516.79 80.936C517.19 80.536 517.39 79.952 517.39 79.184C517.39 77.696 516.502 76.952 514.726 76.952C514.15 76.952 513.446 77.048 512.614 77.24C512.486 80.52 512.422 82.224 512.422 82.352ZM533.416 86.552C533.416 87.704 533.6 88.616 533.968 89.288C534.336 89.944 534.952 90.272 535.816 90.272C536.68 90.272 537.352 89.984 537.832 89.408C538.328 88.816 538.576 88.104 538.576 87.272C539.12 87.272 539.592 87.408 539.992 87.68C540.392 87.952 540.592 88.328 540.592 88.808C540.592 89.8 540.064 90.632 539.008 91.304C537.952 91.96 536.84 92.288 535.672 92.288C533.848 92.288 532.528 91.8 531.712 90.824C530.896 89.832 530.488 88.368 530.488 86.432C530.488 84.496 531.032 82.872 532.12 81.56C533.224 80.232 534.688 79.568 536.512 79.568C537.76 79.568 538.76 79.856 539.512 80.432C540.28 80.992 540.664 81.872 540.664 83.072C540.664 84.256 540.12 85.152 539.032 85.76C537.96 86.352 536.648 86.648 535.096 86.648C534.552 86.648 533.992 86.616 533.416 86.552ZM533.44 84.656C533.92 84.752 534.424 84.8 534.952 84.8C536.104 84.8 537.072 84.584 537.856 84.152C537.952 83.768 538 83.464 538 83.24C538 82.68 537.8 82.256 537.4 81.968C537 81.68 536.448 81.536 535.744 81.536C535.056 81.536 534.432 81.76 533.872 82.208C533.584 83.04 533.44 83.856 533.44 84.656ZM552.36 87.632C552.312 87.856 552.288 88.04 552.288 88.184C552.288 88.84 552.48 89.344 552.864 89.696C553.264 90.048 553.792 90.224 554.448 90.224C555.12 90.224 555.672 90.104 556.104 89.864C556.552 89.608 556.776 89.232 556.776 88.736C556.776 88.24 556.536 87.848 556.056 87.56C555.592 87.256 555.024 87.016 554.352 86.84C553.696 86.664 553.032 86.472 552.36 86.264C551.688 86.04 551.112 85.696 550.632 85.232C550.168 84.768 549.936 84.184 549.936 83.48C549.936 82.376 550.52 81.448 551.688 80.696C552.856 79.944 554.08 79.568 555.36 79.568C556.768 79.568 557.84 79.856 558.576 80.432C559.008 80.768 559.224 81.216 559.224 81.776C559.224 82.32 559.008 82.768 558.576 83.12C558.16 83.456 557.648 83.624 557.04 83.624C556.912 83.624 556.752 83.608 556.56 83.576C556.608 83.368 556.632 83.184 556.632 83.024C556.632 82.56 556.456 82.208 556.104 81.968C555.752 81.728 555.272 81.608 554.664 81.608C554.072 81.608 553.528 81.728 553.032 81.968C552.84 82.224 552.744 82.552 552.744 82.952C552.744 83.352 552.976 83.68 553.44 83.936C553.904 84.176 554.464 84.392 555.12 84.584C555.792 84.76 556.464 84.968 557.136 85.208C557.808 85.432 558.376 85.792 558.84 86.288C559.304 86.768 559.536 87.376 559.536 88.112C559.536 89.312 558.936 90.312 557.736 91.112C556.552 91.896 555.328 92.288 554.064 92.288C552.8 92.288 551.752 92.064 550.92 91.616C550.104 91.152 549.696 90.456 549.696 89.528C549.696 88.952 549.904 88.488 550.32 88.136C550.752 87.768 551.272 87.584 551.88 87.584C552.008 87.584 552.168 87.6 552.36 87.632ZM569.378 76.328C569.89 76.072 570.41 75.944 570.938 75.944C571.466 75.944 571.89 76.112 572.21 76.448C572.546 76.784 572.714 77.28 572.714 77.936C572.714 78.592 572.674 79.336 572.594 80.168C573.794 80.168 574.938 80 576.026 79.664C576.218 79.984 576.314 80.36 576.314 80.792C576.314 81.208 576.122 81.552 575.738 81.824C575.37 82.08 574.994 82.208 574.61 82.208C574.226 82.208 573.794 82.16 573.314 82.064C572.834 81.968 572.522 81.912 572.378 81.896C572.362 82.04 572.314 82.328 572.234 82.76C572.17 83.192 572.114 83.568 572.066 83.888C571.938 84.768 571.874 85.712 571.874 86.72C571.874 88.912 572.586 90.008 574.01 90.008C574.538 90.008 575.146 89.824 575.834 89.456C576.042 89.76 576.146 90.152 576.146 90.632C576.146 91.112 575.882 91.488 575.354 91.76C574.842 92.016 574.226 92.144 573.506 92.144C570.69 92.144 569.282 90.544 569.282 87.344C569.282 86.88 569.346 86.04 569.474 84.824C569.618 83.608 569.69 82.624 569.69 81.872C568.922 81.92 568.306 82.056 567.842 82.28C567.65 81.992 567.554 81.664 567.554 81.296C567.554 80.912 567.69 80.6 567.962 80.36C568.234 80.104 568.57 79.976 568.97 79.976C569.37 79.976 569.634 79.984 569.762 80C569.778 79.872 569.786 79.704 569.786 79.496C569.786 78.296 569.65 77.24 569.378 76.328Z" fill="white"/>
</svg>
