<svg width="28" height="24" viewBox="0 0 28 24" fill="none" xmlns="http://www.w3.org/2000/svg">
<path d="M0.476257 12C1.65126 5.60003 7.26001 0.750031 14 0.750031C20.74 0.750031 26.3475 5.60003 27.5238 12C26.3488 18.4 20.74 23.25 14 23.25C7.26001 23.25 1.65251 18.4 0.476257 12ZM14 18.25C15.6576 18.25 17.2473 17.5916 18.4194 16.4194C19.5915 15.2473 20.25 13.6576 20.25 12C20.25 10.3424 19.5915 8.75272 18.4194 7.58061C17.2473 6.40851 15.6576 5.75003 14 5.75003C12.3424 5.75003 10.7527 6.40851 9.58059 7.58061C8.40849 8.75272 7.75001 10.3424 7.75001 12C7.75001 13.6576 8.40849 15.2473 9.58059 16.4194C10.7527 17.5916 12.3424 18.25 14 18.25ZM14 15.75C13.0054 15.75 12.0516 15.3549 11.3484 14.6517C10.6451 13.9484 10.25 12.9946 10.25 12C10.25 11.0055 10.6451 10.0516 11.3484 9.34838C12.0516 8.64512 13.0054 8.25003 14 8.25003C14.9946 8.25003 15.9484 8.64512 16.6517 9.34838C17.3549 10.0516 17.75 11.0055 17.75 12C17.75 12.9946 17.3549 13.9484 16.6517 14.6517C15.9484 15.3549 14.9946 15.75 14 15.75Z" fill="white"/>
</svg>
