<svg width="19" height="20" viewBox="0 0 19 20" fill="none" xmlns="http://www.w3.org/2000/svg">
<path d="M8 0C12.068 0 15.426 3.036 15.934 6.965L18.184 10.504C18.332 10.737 18.302 11.084 17.959 11.232L16 12.07V15C16 16.105 15.105 17 14 17H12.001L12 20H3V16.306C3 15.126 2.564 14.009 1.756 13.001C0.657 11.631 0 9.892 0 8C0 3.582 3.582 0 8 0ZM7.47 5.763C6.786 5.079 5.678 5.079 4.995 5.763C4.311 6.446 4.311 7.554 4.995 8.237L8 11.243L11.005 8.237C11.689 7.554 11.689 6.446 11.005 5.763C10.322 5.079 9.214 5.079 8.53 5.763L8 6.293L7.47 5.763Z" fill="white"/>
</svg>
