<svg width="21" height="21" viewBox="0 0 21 21" fill="none" xmlns="http://www.w3.org/2000/svg">
<path d="M17.2083 20.0833H3.79166C3.02916 20.0833 2.29789 19.7804 1.75872 19.2413C1.21956 18.7021 0.916656 17.9708 0.916656 17.2083V1.87499C0.916656 1.62082 1.01762 1.37707 1.19735 1.19735C1.37707 1.01762 1.62082 0.916656 1.87499 0.916656H15.2917C15.5458 0.916656 15.7896 1.01762 15.9693 1.19735C16.149 1.37707 16.25 1.62082 16.25 1.87499V13.375H20.0833V17.2083C20.0833 17.9708 19.7804 18.7021 19.2413 19.2413C18.7021 19.7804 17.9708 20.0833 17.2083 20.0833ZM16.25 15.2917V17.2083C16.25 17.4625 16.351 17.7062 16.5307 17.886C16.7104 18.0657 16.9542 18.1667 17.2083 18.1667C17.4625 18.1667 17.7062 18.0657 17.886 17.886C18.0657 17.7062 18.1667 17.4625 18.1667 17.2083V15.2917H16.25ZM4.74999 5.70832V7.62499H12.4167V5.70832H4.74999ZM4.74999 9.54166V11.4583H12.4167V9.54166H4.74999ZM4.74999 13.375V15.2917H9.54166V13.375H4.74999Z" fill="white"/>
</svg>
