<svg width="78" height="78" viewBox="0 0 78 78" fill="none" xmlns="http://www.w3.org/2000/svg">
<path d="M39 77.3334C17.8285 77.3334 0.666626 60.1715 0.666626 39C0.666626 17.8285 17.8285 0.666672 39 0.666672C60.1715 0.666672 77.3333 17.8285 77.3333 39C77.3333 60.1715 60.1715 77.3334 39 77.3334ZM39 69.6667C47.1333 69.6667 54.9334 66.4357 60.6846 60.6846C66.4357 54.9335 69.6666 47.1333 69.6666 39C69.6666 30.8667 66.4357 23.0665 60.6846 17.3154C54.9334 11.5643 47.1333 8.33334 39 8.33334C30.8666 8.33334 23.0665 11.5643 17.3153 17.3154C11.5642 23.0665 8.33329 30.8667 8.33329 39C8.33329 47.1333 11.5642 54.9335 17.3153 60.6846C23.0665 66.4357 30.8666 69.6667 39 69.6667ZM33.7176 25.2575L52.4205 37.7235C52.6308 37.8635 52.8033 38.0533 52.9226 38.276C53.0419 38.4986 53.1043 38.7474 53.1043 39C53.1043 39.2527 53.0419 39.5014 52.9226 39.7241C52.8033 39.9468 52.6308 40.1365 52.4205 40.2765L33.7138 52.7425C33.4831 52.8954 33.2154 52.983 32.939 52.9961C32.6625 53.0092 32.3877 52.9472 32.1437 52.8167C31.8996 52.6862 31.6955 52.4921 31.5528 52.255C31.4101 52.0179 31.3343 51.7466 31.3333 51.4699V26.5302C31.3338 26.2528 31.4095 25.9808 31.5524 25.7431C31.6953 25.5054 31.8999 25.3109 32.1446 25.1803C32.3893 25.0497 32.6648 24.9879 32.9418 25.0015C33.2188 25.0151 33.4869 25.1036 33.7176 25.2575Z" fill="white"/>
</svg>
