<svg width="31" height="31" viewBox="0 0 31 31" fill="none" xmlns="http://www.w3.org/2000/svg">
<path d="M1.10915 17.8771C0.847567 16.3032 0.847567 14.6968 1.10915 13.1229C2.71624 13.1608 4.15999 12.3908 4.72145 11.036C5.2829 9.67979 4.80603 8.11354 3.64228 7.00667C4.57038 5.70771 5.70664 4.57096 7.00519 3.64229C8.11353 4.80604 9.67978 5.28292 11.036 4.72146C12.3923 4.16 13.1608 2.71479 13.1214 1.10917C14.6963 0.847258 16.3036 0.847258 17.8785 1.10917C17.8392 2.71625 18.6092 4.16 19.9639 4.72146C21.3202 5.28292 22.8864 4.80604 23.9933 3.64229C25.2923 4.57039 26.429 5.70666 27.3577 7.00521C26.1939 8.11354 25.7171 9.67979 26.2785 11.036C26.84 12.3923 28.2852 13.1608 29.8908 13.1215C30.1527 14.6963 30.1527 16.3037 29.8908 17.8785C28.2837 17.8392 26.84 18.6092 26.2785 19.964C25.7171 21.3202 26.1939 22.8865 27.3577 23.9933C26.4296 25.2923 25.2933 26.429 23.9948 27.3577C22.8864 26.194 21.3202 25.7171 19.9639 26.2785C18.6077 26.84 17.8392 28.2852 17.8785 29.8908C16.3036 30.1527 14.6963 30.1527 13.1214 29.8908C13.1608 28.2838 12.3908 26.84 11.036 26.2785C9.67978 25.7171 8.11353 26.194 7.00665 27.3577C5.7077 26.4296 4.57094 25.2933 3.64228 23.9948C4.80603 22.8865 5.2829 21.3202 4.72145 19.964C4.15999 18.6077 2.71478 17.8392 1.10915 17.8785V17.8771ZM15.5 19.875C16.6603 19.875 17.7731 19.4141 18.5936 18.5936C19.414 17.7731 19.875 16.6603 19.875 15.5C19.875 14.3397 19.414 13.2269 18.5936 12.4064C17.7731 11.5859 16.6603 11.125 15.5 11.125C14.3397 11.125 13.2269 11.5859 12.4064 12.4064C11.5859 13.2269 11.125 14.3397 11.125 15.5C11.125 16.6603 11.5859 17.7731 12.4064 18.5936C13.2269 19.4141 14.3397 19.875 15.5 19.875Z" fill="white"/>
</svg>
